<?xml version="1.0" encoding="UTF-8" standalone="no"?>
<!-- Created with Inkscape (http://www.inkscape.org/) -->

<svg
   xmlns:osb="http://www.openswatchbook.org/uri/2009/osb"
   xmlns:dc="http://purl.org/dc/elements/1.1/"
   xmlns:cc="http://creativecommons.org/ns#"
   xmlns:rdf="http://www.w3.org/1999/02/22-rdf-syntax-ns#"
   xmlns:svg="http://www.w3.org/2000/svg"
   xmlns="http://www.w3.org/2000/svg"
   xmlns:sodipodi="http://sodipodi.sourceforge.net/DTD/sodipodi-0.dtd"
   xmlns:inkscape="http://www.inkscape.org/namespaces/inkscape"
   width="297mm"
   height="210mm"
   viewBox="0 0 1052.3622 744.09448"
   id="svg2"
   version="1.1"
   inkscape:version="0.91 r13725"
   sodipodi:docname="QOlogo2.svg"
   inkscape:export-filename="/home/piro/Pictures/QOlogo2.png"
   inkscape:export-xdpi="90"
   inkscape:export-ydpi="90">
  <defs
     id="defs4">
    <linearGradient
       id="linearGradient4818"
       osb:paint="solid">
      <stop
         style="stop-color:#7824b7;stop-opacity:1;"
         offset="0"
         id="stop4820" />
    </linearGradient>
  </defs>
  <sodipodi:namedview
     id="base"
     pagecolor="#ffffff"
     bordercolor="#666666"
     borderopacity="1.0"
     inkscape:pageopacity="0.0"
     inkscape:pageshadow="2"
     inkscape:zoom="0.7"
     inkscape:cx="257.32984"
     inkscape:cy="358.94752"
     inkscape:document-units="px"
     inkscape:current-layer="layer1"
     showgrid="false"
     inkscape:window-width="1920"
     inkscape:window-height="1013"
     inkscape:window-x="1920"
     inkscape:window-y="0"
     inkscape:window-maximized="1">
    <inkscape:grid
       type="xygrid"
       id="grid4716" />
  </sodipodi:namedview>
  <metadata
     id="metadata7">
    <rdf:RDF>
      <cc:Work
         rdf:about="">
        <dc:format>image/svg+xml</dc:format>
        <dc:type
           rdf:resource="http://purl.org/dc/dcmitype/StillImage" />
        <dc:title />
      </cc:Work>
    </rdf:RDF>
  </metadata>
  <g
     inkscape:groupmode="layer"
     id="layer2"
     inkscape:label="Layer 2"
     style="display:none">
    <rect
       style="opacity:1;fill:#000000;fill-opacity:1;stroke:#7200da;stroke-width:2.4000001;stroke-linecap:round;stroke-linejoin:miter;stroke-miterlimit:4;stroke-dasharray:none;stroke-dashoffset:0;stroke-opacity:1"
       id="rect4175"
       width="1417.1428"
       height="970"
       x="-167.14285"
       y="-81.619797" />
  </g>
  <g
     inkscape:label="Layer 1"
     inkscape:groupmode="layer"
     id="layer1"
     transform="translate(0,-308.26772)">
    <g
       id="g4177">
      <path
         d="m 415.54868,875.57953 a 214.69855,214.69855 0 0 1 -298.84542,-9.2116 214.69855,214.69855 0 0 1 0.13903,-298.98733 214.69855,214.69855 0 0 1 298.85385,-8.93367"
         sodipodi:open="true"
         sodipodi:end="5.4527283"
         sodipodi:start="0.83138701"
         sodipodi:ry="214.69855"
         sodipodi:rx="214.69855"
         sodipodi:cy="716.94592"
         sodipodi:cx="270.87372"
         sodipodi:type="arc"
         id="path4136"
         style="opacity:1;fill:none;stroke:#00b9f1;stroke-width:31.29972458;stroke-linecap:round;stroke-linejoin:round;stroke-miterlimit:4;stroke-dasharray:none;stroke-opacity:1" />
      <circle
         r="82.925903"
         cy="716.94592"
         cx="270.87372"
         id="path4138"
         style="opacity:1;fill:none;stroke:#7200da;stroke-width:18.05297852;stroke-linejoin:round;stroke-miterlimit:4;stroke-dasharray:none;stroke-opacity:1" />
      <path
         transform="scale(-1,1)"
         d="m -632.27859,875.57953 a 214.69855,214.69855 0 0 1 -298.84542,-9.2116 214.69855,214.69855 0 0 1 0.13903,-298.98733 214.69855,214.69855 0 0 1 298.85385,-8.93367"
         sodipodi:open="true"
         sodipodi:end="5.4527283"
         sodipodi:start="0.83138701"
         sodipodi:ry="214.69855"
         sodipodi:rx="214.69855"
         sodipodi:cy="716.94592"
         sodipodi:cx="-776.95355"
         sodipodi:type="arc"
         id="path4136-3"
         style="opacity:1;fill:none;stroke:#00b9f1;stroke-width:31.29972458;stroke-linecap:round;stroke-linejoin:round;stroke-miterlimit:4;stroke-dasharray:none;stroke-opacity:1" />
      <circle
         transform="scale(-1,1)"
         r="82.925903"
         cy="716.94592"
         cx="-776.95355"
         id="path4138-6"
         style="opacity:1;fill:none;stroke:#7200da;stroke-width:18.20882225;stroke-linejoin:miter;stroke-miterlimit:4;stroke-dasharray:none;stroke-opacity:1;fill-opacity:1" />
      <path
         sodipodi:nodetypes="cszzczczzsczc"
         inkscape:connector-curvature="0"
         id="path4712"
         d="m 272.0853,634.47747 c 0,0 6.96075,-7.27794 42.92137,4.81356 56.93208,19.14303 58.66159,59.39541 210.79863,59.39541 152.13705,0 162.12815,-44.00219 210.60562,-59.71883 48.4775,-15.71664 44.13243,-5.15482 44.13243,-5.15482 0,0 -81.86167,1.1807 -81.86167,84.22308 0,83.04237 81.86167,83.63977 81.86167,83.63977 0,0 -3.76378,8.66662 -55.57696,-8.02238 -51.81316,-16.68901 -50.10512,-63.22061 -199.18291,-63.22061 -149.07779,0 -146.36948,46.29942 -211.30166,67.02779 -40.89822,13.05599 -44.70067,4.2152 -44.70067,4.2152 0,0 86.39119,-0.71099 84.51832,-83.26485 -1.87288,-82.55382 -82.21417,-83.93332 -82.21417,-83.93332 z"
         style="fill:#7200da;fill-opacity:1;fill-rule:evenodd;stroke:#7200da;stroke-width:1.5584408px;stroke-linecap:butt;stroke-linejoin:miter;stroke-opacity:1" />
      <path
         sodipodi:nodetypes="cczsssccssssccc"
         inkscape:connector-curvature="0"
         id="path4734"
         d="m 54.521568,410.7723 c -8.899676,0.38032 0.860226,81.62043 0.860226,81.62043 0,0 79.759306,-20.41887 147.265966,-20.96916 67.50665,-0.55029 188.63059,15.4562 200.08987,18.3872 17.28095,4.42004 57.212,10.48514 96.61231,50.71206 7.36549,7.52001 12.91974,16.78016 14.50384,21.78043 1.58409,5.00028 1.66193,7.20779 1.66193,7.20779 0.35416,9.44935 14.61792,8.59626 13.84334,-0.82792 0,0 -0.31629,-4.36052 -2.28289,-10.56817 -1.96658,-6.20768 -5.61646,-14.76325 -12.32446,-24.61242 -13.41598,-19.69834 -39.03048,-44.48386 -87.36399,-66.5442 -49.4719,-22.57992 -141.71366,-36.08467 -222.50091,-44.5921 -80.78723,-8.50743 -149.671192,-11.58787 -149.671192,-11.58787 -0.231085,-0.014 -0.462708,-0.0157 -0.693996,-0.007 z"
         style="color:#000000;font-style:normal;font-variant:normal;font-weight:normal;font-stretch:normal;font-size:medium;line-height:normal;font-family:sans-serif;text-indent:0;text-align:start;text-decoration:none;text-decoration-line:none;text-decoration-style:solid;text-decoration-color:#000000;letter-spacing:normal;word-spacing:normal;text-transform:none;direction:ltr;block-progression:tb;writing-mode:lr-tb;baseline-shift:baseline;text-anchor:start;white-space:normal;clip-rule:nonzero;display:inline;overflow:visible;visibility:visible;opacity:1;isolation:auto;mix-blend-mode:normal;color-interpolation:sRGB;color-interpolation-filters:linearRGB;solid-color:#000000;solid-opacity:1;fill:#00b9f1;fill-opacity:1;fill-rule:evenodd;stroke:#00b9f1;stroke-width:2.4;stroke-linecap:round;stroke-linejoin:round;stroke-miterlimit:4;stroke-dasharray:none;stroke-dashoffset:0;stroke-opacity:1;color-rendering:auto;image-rendering:auto;shape-rendering:auto;text-rendering:auto;enable-background:accumulate" />
      <path
         sodipodi:nodetypes="cczsssccssssccc"
         inkscape:connector-curvature="0"
         id="path4734-7"
         d="m 990.54452,411.34747 c 8.89968,0.38032 -0.86022,81.62044 -0.86022,81.62044 0,0 -79.75931,-20.41888 -147.26596,-20.96917 -67.50665,-0.55029 -188.6306,15.4562 -200.08987,18.3872 -17.28095,4.42004 -57.212,10.48515 -96.61231,50.71206 -7.36549,7.52001 -12.91974,16.78016 -14.50384,21.78044 -1.58409,5.00027 -1.66193,7.20778 -1.66193,7.20778 -0.35416,9.44935 -14.61792,8.59627 -13.84334,-0.82792 0,0 0.31629,-4.36051 2.28288,-10.56817 1.96658,-6.20768 5.61647,-14.76323 12.32447,-24.61242 13.41597,-19.69834 39.03047,-44.48386 87.36399,-66.54419 49.47189,-22.57993 141.71366,-36.08468 222.50091,-44.59211 80.78723,-8.50743 149.67118,-11.58786 149.67118,-11.58786 0.23109,-0.014 0.4627,-0.0158 0.69399,-0.007 z"
         style="color:#000000;font-style:normal;font-variant:normal;font-weight:normal;font-stretch:normal;font-size:medium;line-height:normal;font-family:sans-serif;text-indent:0;text-align:start;text-decoration:none;text-decoration-line:none;text-decoration-style:solid;text-decoration-color:#000000;letter-spacing:normal;word-spacing:normal;text-transform:none;direction:ltr;block-progression:tb;writing-mode:lr-tb;baseline-shift:baseline;text-anchor:start;white-space:normal;clip-rule:nonzero;display:inline;overflow:visible;visibility:visible;opacity:1;isolation:auto;mix-blend-mode:normal;color-interpolation:sRGB;color-interpolation-filters:linearRGB;solid-color:#000000;solid-opacity:1;fill:#00b9f1;fill-opacity:1;fill-rule:evenodd;stroke:#00b9f1;stroke-width:2.4;stroke-linecap:round;stroke-linejoin:round;stroke-miterlimit:4;stroke-dasharray:none;stroke-dashoffset:0;stroke-opacity:1;color-rendering:auto;image-rendering:auto;shape-rendering:auto;text-rendering:auto;enable-background:accumulate" />
      <path
         sodipodi:nodetypes="czczczczc"
         inkscape:connector-curvature="0"
         id="path4753"
         d="m 461.576,871.88034 c 0,0 28.57141,-19.66603 38.96102,-30.05562 10.38962,-10.38962 23.37661,-32.282 23.37661,-32.282 0,0 12.98701,21.61409 23.37662,32.0037 10.3896,10.3896 38.96101,30.33392 38.96101,30.33392 0,0 -24.95077,15.58442 -38.42815,48.12817 -13.47738,32.54373 -24.07248,76.1873 -24.07248,76.1873 0,0 -5.39417,-41.94666 -22.09482,-75.33886 C 484.95518,887.46476 461.576,871.88034 461.576,871.88034 Z"
         style="fill:#fc913a;fill-opacity:1;fill-rule:evenodd;stroke:#fc913a;stroke-width:3.11688161;stroke-linecap:round;stroke-linejoin:round;stroke-miterlimit:4;stroke-dasharray:none;stroke-opacity:1" />
    </g>
  </g>
</svg>
